<svg xmlns="http://www.w3.org/2000/svg" xmlns:xlink="http://www.w3.org/1999/xlink" width="500" zoomAndPan="magnify" viewBox="0 0 375 374.999991" height="500" preserveAspectRatio="xMidYMid meet" version="1.0"><defs><g/><clipPath id="f72c990114"><path d="M 0.441406 0.441406 L 201 0.441406 L 201 252 L 0.441406 252 Z M 0.441406 0.441406 " clip-rule="nonzero"/></clipPath><clipPath id="6345b311e1"><rect x="0" width="201" y="0" height="252"/></clipPath><clipPath id="e15968675e"><path d="M 159 1 L 360.441406 1 L 360.441406 252.199219 L 159 252.199219 Z M 159 1 " clip-rule="nonzero"/></clipPath><clipPath id="4e5afc8b77"><rect x="0" width="202" y="0" height="252"/></clipPath><clipPath id="ebc69bb643"><rect x="0" width="361" y="0" height="253"/></clipPath></defs><g transform="matrix(1, 0, 0, 1, 7, 61)"><g clip-path="url(#ebc69bb643)"><g clip-path="url(#f72c990114)"><g transform="matrix(1, 0, 0, 1, 0.000000000000000888, 0)"><g clip-path="url(#6345b311e1)"><g fill="#ffffff" fill-opacity="1"><g transform="translate(1.21295, 198.883717)"><g><path d="M 50.921875 -4.171875 L 47.578125 -12.109375 L 45.484375 -20.234375 L 30.046875 -59.265625 L 29.421875 -63.234375 L 27.34375 -67.609375 L 26.703125 -71.578125 L 21.90625 -83.046875 L 21.078125 -86.8125 L 19.203125 -90.984375 L 18.15625 -94.734375 L 16.28125 -98.703125 L 12.3125 -110.59375 L 10.21875 -114.140625 L 9.1875 -118.53125 L 7.296875 -122.28125 L 4.796875 -130 L 2.921875 -133.96875 L 1.875 -139.390625 L 2.921875 -144.1875 L 7.296875 -145.65625 L 15.234375 -145.65625 L 18.578125 -146.0625 L 31.71875 -145.859375 L 35.265625 -146.28125 L 40.484375 -143.78125 L 43.828125 -140.015625 L 44.859375 -135.84375 L 46.109375 -132.09375 L 46.953125 -127.703125 L 50.078125 -119.5625 L 52.171875 -115.609375 L 64.0625 -69.484375 L 65.3125 -69.703125 L 67.609375 -73.875 L 68.234375 -77.421875 L 70.53125 -81.796875 L 71.984375 -85.765625 L 72.625 -89.734375 L 77.203125 -101.421875 L 78.453125 -106 L 84.296875 -121.234375 L 86.1875 -129.375 L 89.9375 -137.515625 L 92.4375 -141.6875 L 97.03125 -143.984375 L 101 -143.78125 L 106.421875 -141.890625 L 109.546875 -137.71875 L 118.3125 -113.71875 L 118.9375 -109.546875 L 120.828125 -105.375 L 121.65625 -101.421875 L 129.171875 -81.375 L 129.796875 -77.421875 L 132.09375 -73.875 L 132.71875 -70.109375 L 134.59375 -69.703125 L 143.78125 -105.796875 L 146.28125 -112.0625 L 147.328125 -115.8125 L 149.203125 -119.984375 L 152.75 -132.296875 L 154.625 -135.84375 L 155.671875 -140.015625 L 158.796875 -143.78125 L 163.59375 -146.0625 L 167.359375 -145.859375 L 190.09375 -146.28125 L 196.5625 -144.609375 L 197.40625 -139.59375 L 191.984375 -122.078125 L 189.6875 -118.53125 L 185.921875 -106.625 L 183.84375 -102.875 L 183 -98.90625 L 181.125 -94.734375 L 179.046875 -87.015625 L 176.75 -83.046875 L 171.953125 -67.609375 L 167.359375 -58.015625 L 165.6875 -51.953125 L 164.015625 -47.578125 L 163.1875 -43.609375 L 161.09375 -39.859375 L 158.375 -31.515625 L 155.046875 -24.203125 L 152.75 -16.0625 L 148.984375 -8.34375 L 148.15625 -4.375 L 144.609375 -0.625 L 139.390625 1.25 L 132.296875 1.671875 L 127.5 -0.203125 L 123.75 -4.796875 L 120.609375 -12.3125 L 119.78125 -16.28125 L 118.3125 -20.03125 L 116.015625 -24.203125 L 112.890625 -31.921875 L 111.640625 -35.890625 L 108.296875 -43.40625 L 107.25 -47.578125 L 105.375 -51.546875 L 103.296875 -55.5 L 102.25 -59.046875 L 100.15625 -63.234375 L 98.5 -63.015625 L 97.234375 -59.265625 L 93.484375 -51.125 L 92.65625 -47.578125 L 84.296875 -27.75 L 83.265625 -23.578125 L 81.59375 -20.234375 L 78.671875 -11.890625 L 74.90625 -4.59375 L 71.578125 -0.421875 L 66.78125 1.25 L 58.640625 1.25 L 54.046875 -0.203125 Z M 50.921875 -4.171875 "/></g></g></g></g></g></g><g clip-path="url(#e15968675e)"><g transform="matrix(1, 0, 0, 1, 159, 1)"><g clip-path="url(#4e5afc8b77)"><g fill="#00a7d6" fill-opacity="1"><g transform="translate(200.7821, 53.072257)"><g><path d="M -50.921875 4.171875 L -47.578125 12.109375 L -45.5 20.25 L -30.046875 59.265625 L -29.421875 63.234375 L -27.34375 67.609375 L -26.71875 71.578125 L -21.90625 83.0625 L -21.078125 86.8125 L -19.203125 90.984375 L -18.15625 94.75 L -16.28125 98.703125 L -12.3125 110.609375 L -10.21875 114.15625 L -9.1875 118.53125 L -7.296875 122.296875 L -4.796875 130.015625 L -2.921875 133.984375 L -1.875 139.40625 L -2.921875 144.203125 L -7.296875 145.65625 L -15.234375 145.65625 L -18.578125 146.078125 L -31.71875 145.875 L -35.265625 146.296875 L -40.484375 143.78125 L -43.828125 140.03125 L -44.875 135.859375 L -46.125 132.09375 L -46.953125 127.71875 L -50.078125 119.578125 L -52.171875 115.609375 L -64.0625 69.5 L -65.3125 69.703125 L -67.609375 73.875 L -68.234375 77.421875 L -70.53125 81.8125 L -72 85.765625 L -72.625 89.734375 L -77.21875 101.421875 L -78.46875 106.015625 L -84.3125 121.25 L -86.1875 129.390625 L -89.9375 137.53125 L -92.453125 141.703125 L -97.046875 144 L -101 143.78125 L -106.4375 141.90625 L -109.5625 137.734375 L -118.328125 113.734375 L -118.953125 109.5625 L -120.828125 105.390625 L -121.671875 101.421875 L -129.171875 81.390625 L -129.796875 77.421875 L -132.09375 73.875 L -132.71875 70.125 L -134.609375 69.703125 L -143.78125 105.796875 L -146.296875 112.0625 L -147.328125 115.828125 L -149.21875 120 L -152.765625 132.3125 L -154.640625 135.859375 L -155.6875 140.03125 L -158.8125 143.78125 L -163.609375 146.078125 L -167.375 145.875 L -190.109375 146.296875 L -196.578125 144.625 L -197.421875 139.609375 L -192 122.078125 L -189.703125 118.53125 L -185.9375 106.640625 L -183.859375 102.890625 L -183.015625 98.921875 L -181.140625 94.75 L -179.046875 87.015625 L -176.765625 83.0625 L -171.953125 67.609375 L -167.375 58.015625 L -165.703125 51.96875 L -164.03125 47.578125 L -163.1875 43.609375 L -161.109375 39.859375 L -158.390625 31.515625 L -155.0625 24.203125 L -152.765625 16.0625 L -149 8.34375 L -148.171875 4.375 L -144.625 0.625 L -139.40625 -1.25 L -132.3125 -1.671875 L -127.515625 0.203125 L -123.75 4.796875 L -120.625 12.3125 L -119.78125 16.28125 L -118.328125 20.03125 L -116.03125 24.203125 L -112.90625 31.921875 L -111.640625 35.890625 L -108.3125 43.40625 L -107.265625 47.578125 L -105.390625 51.546875 L -103.296875 55.515625 L -102.25 59.0625 L -100.171875 63.234375 L -98.5 63.03125 L -97.25 59.265625 L -93.484375 51.125 L -92.65625 47.578125 L -84.3125 27.75 L -83.265625 23.578125 L -81.59375 20.25 L -78.671875 11.890625 L -74.921875 4.59375 L -71.578125 0.421875 L -66.78125 -1.25 L -58.640625 -1.25 L -54.046875 0.203125 Z M -50.921875 4.171875 "/></g></g></g></g></g></g></g></g></svg>